<svg xmlns="http://www.w3.org/2000/svg" xmlns:xlink="http://www.w3.org/1999/xlink" contentStyleType="text/css" data-diagram-type="DESCRIPTION" height="678px" preserveAspectRatio="none" style="width:371px;height:678px;background:#FFFFFF;" version="1.1" viewBox="0 0 371 678" width="371px" zoomAndPan="magnify"><?plantuml 1.2026.6?><defs/><g><g class="title" data-source-line="2"><text fill="#000000" font-family="sans-serif" font-size="14" font-weight="700" lengthAdjust="spacing" textLength="236.5986" x="63.7007" y="23.5352">UML - &#1074;&#1072;&#1088;&#1080;&#1072;&#1085;&#1090;&#1099; &#1080;&#1089;&#1087;&#1086;&#1083;&#1100;&#1079;&#1086;&#1074;&#1072;&#1085;&#1080;&#1103;</text></g><!--cluster MyService Platform--><g class="cluster" data-qualified-name="MyService Platform" data-source-line="11" id="ent0005"><rect fill="none" height="629" rx="2.5" ry="2.5" style="stroke:#181818;stroke-width:1;" width="210" x="145" y="41.4883"/><text fill="#000000" font-family="sans-serif" font-size="14" font-weight="700" lengthAdjust="spacing" textLength="138.291" x="180.8545" y="57.0234">MyService Platform</text></g><!--entity client--><g class="entity" data-qualified-name="client" data-source-line="6" id="ent0001"><ellipse cx="61.7051" cy="164.9883" fill="#F1F1F1" rx="8" ry="8" style="stroke:#181818;stroke-width:0.5;"/><path d="M61.7051,172.9883 L61.7051,199.9883 M48.7051,180.9883 L74.7051,180.9883 M61.7051,199.9883 L48.7051,214.9883 M61.7051,199.9883 L74.7051,214.9883" fill="none" style="stroke:#181818;stroke-width:0.5;"/><text fill="#000000" font-family="sans-serif" font-size="14" lengthAdjust="spacing" textLength="49.4102" x="37" y="230.0234">&#1050;&#1083;&#1080;&#1077;&#1085;&#1090;</text></g><!--entity master--><g class="entity" data-qualified-name="master" data-source-line="7" id="ent0002"><ellipse cx="61.7451" cy="356.9883" fill="#F1F1F1" rx="8" ry="8" style="stroke:#181818;stroke-width:0.5;"/><path d="M61.7451,364.9883 L61.7451,391.9883 M48.7451,372.9883 L74.7451,372.9883 M61.7451,391.9883 L48.7451,406.9883 M61.7451,391.9883 L74.7451,406.9883" fill="none" style="stroke:#181818;stroke-width:0.5;"/><text fill="#000000" font-family="sans-serif" font-size="14" lengthAdjust="spacing" textLength="50.4902" x="36.5" y="422.0234">&#1052;&#1072;&#1089;&#1090;&#1077;&#1088;</text></g><!--entity operator--><g class="entity" data-qualified-name="operator" data-source-line="8" id="ent0003"><ellipse cx="61.6592" cy="477.9883" fill="#F1F1F1" rx="8" ry="8" style="stroke:#181818;stroke-width:0.5;"/><path d="M61.6592,485.9883 L61.6592,512.9883 M48.6592,493.9883 L74.6592,493.9883 M61.6592,512.9883 L48.6592,527.9883 M61.6592,512.9883 L74.6592,527.9883" fill="none" style="stroke:#181818;stroke-width:0.5;"/><text fill="#000000" font-family="sans-serif" font-size="14" lengthAdjust="spacing" textLength="68.3184" x="27.5" y="543.0234">&#1054;&#1087;&#1077;&#1088;&#1072;&#1090;&#1086;&#1088;</text></g><!--entity admin--><g class="entity" data-qualified-name="admin" data-source-line="9" id="ent0004"><ellipse cx="61.2515" cy="580.9883" fill="#F1F1F1" rx="8" ry="8" style="stroke:#181818;stroke-width:0.5;"/><path d="M61.2515,588.9883 L61.2515,615.9883 M48.2515,596.9883 L74.2515,596.9883 M61.2515,615.9883 L48.2515,630.9883 M61.2515,615.9883 L74.2515,630.9883" fill="none" style="stroke:#181818;stroke-width:0.5;"/><text fill="#000000" font-family="sans-serif" font-size="14" lengthAdjust="spacing" textLength="110.5029" x="6" y="646.0234">&#1040;&#1076;&#1084;&#1080;&#1085;&#1080;&#1089;&#1090;&#1088;&#1072;&#1090;&#1086;&#1088;</text></g><!--entity UC1--><g class="entity" data-qualified-name="MyService Platform.UC1" data-source-line="12" id="ent0006"><ellipse cx="250.0357" cy="139.2954" fill="#F1F1F1" rx="84.5357" ry="19.3071" style="stroke:#181818;stroke-width:0.5;"/><text fill="#000000" font-family="sans-serif" font-size="14" lengthAdjust="spacing" textLength="140.6973" x="179.6871" y="144.0396">&#1055;&#1086;&#1089;&#1084;&#1086;&#1090;&#1088;&#1077;&#1090;&#1100; &#1082;&#1072;&#1090;&#1072;&#1083;&#1086;&#1075;</text></g><!--entity UC2--><g class="entity" data-qualified-name="MyService Platform.UC2" data-source-line="13" id="ent0007"><ellipse cx="250.1013" cy="194.4085" fill="#F1F1F1" rx="72.6013" ry="16.9203" style="stroke:#181818;stroke-width:0.5;"/><text fill="#000000" font-family="sans-serif" font-size="14" lengthAdjust="spacing" textLength="112.1641" x="194.0193" y="199.1527">&#1056;&#1072;&#1089;&#1089;&#1095;&#1080;&#1090;&#1072;&#1090;&#1100; &#1094;&#1077;&#1085;&#1091;</text></g><!--entity UC3--><g class="entity" data-qualified-name="MyService Platform.UC3" data-source-line="14" id="ent0008"><ellipse cx="249.7582" cy="245.2399" fill="#F1F1F1" rx="66.7582" ry="15.7516" style="stroke:#181818;stroke-width:0.5;"/><text fill="#000000" font-family="sans-serif" font-size="14" lengthAdjust="spacing" textLength="97.2822" x="201.1171" y="249.9841">&#1057;&#1086;&#1079;&#1076;&#1072;&#1090;&#1100; &#1079;&#1072;&#1082;&#1072;&#1079;</text></g><!--entity UC4--><g class="entity" data-qualified-name="MyService Platform.UC4" data-source-line="15" id="ent0009"><ellipse cx="250.2406" cy="297.3364" fill="#F1F1F1" rx="77.2406" ry="17.8481" style="stroke:#181818;stroke-width:0.5;"/><text fill="#000000" font-family="sans-serif" font-size="14" lengthAdjust="spacing" textLength="123.4912" x="188.495" y="302.0805">&#1055;&#1086;&#1089;&#1084;&#1086;&#1090;&#1088;&#1077;&#1090;&#1100; &#1079;&#1072;&#1082;&#1072;&#1079;</text></g><!--entity UC5--><g class="entity" data-qualified-name="MyService Platform.UC5" data-source-line="16" id="ent0010"><ellipse cx="250.1065" cy="85.6096" fill="#F1F1F1" rx="71.1065" ry="16.6213" style="stroke:#181818;stroke-width:0.5;"/><text fill="#000000" font-family="sans-serif" font-size="14" lengthAdjust="spacing" textLength="108.4316" x="195.8907" y="90.3537">&#1054;&#1090;&#1084;&#1077;&#1085;&#1080;&#1090;&#1100; &#1079;&#1072;&#1082;&#1072;&#1079;</text></g><!--entity UC6--><g class="entity" data-qualified-name="MyService Platform.UC6" data-source-line="17" id="ent0011"><ellipse cx="250.0216" cy="530.5926" fill="#F1F1F1" rx="81.0216" ry="18.6043" style="stroke:#181818;stroke-width:0.5;"/><text fill="#000000" font-family="sans-serif" font-size="14" lengthAdjust="spacing" textLength="132.4873" x="183.7779" y="535.3367">&#1055;&#1086;&#1076;&#1090;&#1074;&#1077;&#1088;&#1076;&#1080;&#1090;&#1100; &#1079;&#1072;&#1082;&#1072;&#1079;</text></g><!--entity UC7--><g class="entity" data-qualified-name="MyService Platform.UC7" data-source-line="18" id="ent0012"><ellipse cx="249.8272" cy="475.5537" fill="#F1F1F1" rx="80.8272" ry="18.5654" style="stroke:#181818;stroke-width:0.5;"/><text fill="#000000" font-family="sans-serif" font-size="14" lengthAdjust="spacing" textLength="132.0293" x="183.8126" y="480.2979">&#1053;&#1072;&#1079;&#1085;&#1072;&#1095;&#1080;&#1090;&#1100; &#1084;&#1072;&#1089;&#1090;&#1077;&#1088;&#1072;</text></g><!--entity UC8--><g class="entity" data-qualified-name="MyService Platform.UC8" data-source-line="19" id="ent0013"><ellipse cx="250.161" cy="417.7205" fill="#F1F1F1" rx="96.661" ry="21.7322" style="stroke:#181818;stroke-width:0.5;"/><text fill="#000000" font-family="sans-serif" font-size="14" lengthAdjust="spacing" textLength="168.2051" x="166.0585" y="422.4646">&#1055;&#1086;&#1089;&#1084;&#1086;&#1090;&#1088;&#1077;&#1090;&#1100; &#1088;&#1072;&#1089;&#1087;&#1080;&#1089;&#1072;&#1085;&#1080;&#1077;</text></g><!--entity UC9--><g class="entity" data-qualified-name="MyService Platform.UC9" data-source-line="20" id="ent0014"><ellipse cx="250.1554" cy="355.3194" fill="#F1F1F1" rx="97.1554" ry="21.8311" style="stroke:#181818;stroke-width:0.5;"/><text fill="#000000" font-family="sans-serif" font-size="14" lengthAdjust="spacing" textLength="169.3057" x="165.5026" y="360.0635">&#1048;&#1079;&#1084;&#1077;&#1085;&#1080;&#1090;&#1100; &#1089;&#1090;&#1072;&#1090;&#1091;&#1089; &#1088;&#1072;&#1073;&#1086;&#1090;&#1099;</text></g><!--entity UC10--><g class="entity" data-qualified-name="MyService Platform.UC10" data-source-line="21" id="ent0015"><ellipse cx="250.0114" cy="643.6906" fill="#F1F1F1" rx="84.0114" ry="19.2023" style="stroke:#181818;stroke-width:0.5;"/><text fill="#000000" font-family="sans-serif" font-size="14" lengthAdjust="spacing" textLength="139.4805" x="180.2712" y="648.4347">&#1059;&#1087;&#1088;&#1072;&#1074;&#1083;&#1103;&#1090;&#1100; &#1091;&#1089;&#1083;&#1091;&#1075;&#1072;&#1084;&#1080;</text></g><!--entity UC11--><g class="entity" data-qualified-name="MyService Platform.UC11" data-source-line="22" id="ent0016"><ellipse cx="249.8777" cy="586.4638" fill="#F1F1F1" rx="85.3777" ry="19.4755" style="stroke:#181818;stroke-width:0.5;"/><text fill="#000000" font-family="sans-serif" font-size="14" lengthAdjust="spacing" textLength="142.6455" x="178.5549" y="591.208">&#1059;&#1087;&#1088;&#1072;&#1074;&#1083;&#1103;&#1090;&#1100; &#1076;&#1086;&#1089;&#1090;&#1091;&#1087;&#1086;&#1084;</text></g><g class="link" data-entity-1="ent0001" data-entity-2="ent0006" data-link-type="dependency" id="lnk17"><polygon fill="#181818" points="177.5801,159.0644,167.8309,157.6669,172.7691,160.4262,170.0098,165.3644,177.5801,159.0644" style="stroke:#181818;stroke-width:1;stroke-linejoin:miter;stroke-miterlimit:10;"/><path d="M86.263,186.7683 C102.7118,181.4814 125.1332,174.3869 145,168.4883 C155.5119,165.3672 161.8394,163.52 172.7691,160.4262" fill="none" style="stroke:#181818;stroke-width:1;"/></g><g class="link" data-entity-1="ent0001" data-entity-2="ent0007" data-link-type="dependency" id="lnk18"><polygon fill="#181818" points="177.3735,194.4883,168.3735,190.4883,172.3735,194.4883,168.3735,198.4883,177.3735,194.4883" style="stroke:#181818;stroke-width:1;stroke-linejoin:miter;stroke-miterlimit:10;"/><path d="M86.1204,194.4883 C109.0563,194.4883 140.0492,194.4883 172.3735,194.4883" fill="none" style="stroke:#181818;stroke-width:1;"/></g><g class="link" data-entity-1="ent0001" data-entity-2="ent0008" data-link-type="dependency" id="lnk19"><polygon fill="#181818" points="182.8023,230.3042,175.0168,224.2722,177.9467,229.1111,173.1078,232.0411,182.8023,230.3042" style="stroke:#181818;stroke-width:1;stroke-linejoin:miter;stroke-miterlimit:10;"/><path d="M86.1973,202.4369 C102.6168,207.826 125.0302,214.9485 145,220.4883 C157.168,223.8638 165.3541,226.0169 177.9467,229.1111" fill="none" style="stroke:#181818;stroke-width:1;"/></g><g class="link" data-entity-1="ent0001" data-entity-2="ent0009" data-link-type="dependency" id="lnk20"><polygon fill="#181818" points="172.9013,282.4094,165.6476,275.7473,168.1626,280.8143,163.0955,283.3293,172.9013,282.4094" style="stroke:#181818;stroke-width:1;stroke-linejoin:miter;stroke-miterlimit:10;"/><path d="M86.28,222.4172 C101.5241,238.6605 122.6023,258.2753 145,270.4883 C153.6801,275.2213 158.485,277.5568 168.1626,280.8143" fill="none" style="stroke:#181818;stroke-width:1;"/></g><g class="link" data-entity-1="ent0001" data-entity-2="ent0010" data-link-type="dependency" id="lnk21"><polygon fill="#181818" points="178.9766,96.6208,169.2149,95.313,174.1783,98.0268,171.4645,102.9902,178.9766,96.6208" style="stroke:#181818;stroke-width:1;stroke-linejoin:miter;stroke-miterlimit:10;"/><path d="M86.3248,162.5721 C101.2845,144.7072 122.0538,123.4793 145,110.4883 C155.4231,104.5873 162.3976,101.4788 174.1783,98.0268" fill="none" style="stroke:#181818;stroke-width:1;"/></g><g class="link" data-entity-1="ent0003" data-entity-2="ent0011" data-link-type="dependency" id="lnk22"><polygon fill="#181818" points="168.6683,520.5814,160.2256,515.5099,163.7059,519.9694,159.2464,523.4498,168.6683,520.5814" style="stroke:#181818;stroke-width:1;stroke-linejoin:miter;stroke-miterlimit:10;"/><path d="M95.8425,511.6002 C116.1685,514.1069 138.1176,516.8138 163.7059,519.9694" fill="none" style="stroke:#181818;stroke-width:1;"/></g><g class="link" data-entity-1="ent0003" data-entity-2="ent0012" data-link-type="dependency" id="lnk23"><polygon fill="#181818" points="168.6683,489.2717,159.1215,486.8513,163.7403,490.1173,160.4744,494.7361,168.6683,489.2717" style="stroke:#181818;stroke-width:1;stroke-linejoin:miter;stroke-miterlimit:10;"/><path d="M95.8425,501.7673 C116.1685,498.2797 138.1521,494.5078 163.7403,490.1173" fill="none" style="stroke:#181818;stroke-width:1;"/></g><g class="link" data-entity-1="ent0002" data-entity-2="ent0013" data-link-type="dependency" id="lnk24"><polygon fill="#181818" points="153.2104,401.5662,144.9881,396.1446,148.2781,400.7463,143.6764,404.0363,153.2104,401.5662" style="stroke:#181818;stroke-width:1;stroke-linejoin:miter;stroke-miterlimit:10;"/><path d="M86.8816,390.541 C104.1605,393.4131 123.6348,396.6501 148.2781,400.7463" fill="none" style="stroke:#181818;stroke-width:1;"/></g><g class="link" data-entity-1="ent0002" data-entity-2="ent0014" data-link-type="dependency" id="lnk25"><polygon fill="#181818" points="152.788,371.4806,143.2539,369.0105,147.8557,372.3005,144.5657,376.9022,152.788,371.4806" style="stroke:#181818;stroke-width:1;stroke-linejoin:miter;stroke-miterlimit:10;"/><path d="M86.8816,382.4356 C104.0618,379.5799 123.3561,376.3728 147.8557,372.3005" fill="none" style="stroke:#181818;stroke-width:1;"/></g><g class="link" data-entity-1="ent0004" data-entity-2="ent0015" data-link-type="dependency" id="lnk26"><polygon fill="#181818" points="165.8989,628.7841,157.7336,623.2771,160.9754,627.9129,156.3397,631.1548,165.8989,628.7841" style="stroke:#181818;stroke-width:1;stroke-linejoin:miter;stroke-miterlimit:10;"/><path d="M117.196,620.1664 C132.4585,622.867 144.4698,624.9923 160.9754,627.9129" fill="none" style="stroke:#181818;stroke-width:1;"/></g><g class="link" data-entity-1="ent0004" data-entity-2="ent0016" data-link-type="dependency" id="lnk27"><polygon fill="#181818" points="164.1539,597.4068,154.717,594.5882,159.1948,598.045,155.738,602.5228,164.1539,597.4068" style="stroke:#181818;stroke-width:1;stroke-linejoin:miter;stroke-miterlimit:10;"/><path d="M117.196,603.4497 C131.921,601.5547 143.2437,600.0977 159.1948,598.045" fill="none" style="stroke:#181818;stroke-width:1;"/></g><?plantuml-src XPFDQXin4CVlUegfxuOutxdqqci3XP076DQo8xeVHgiqX5B8sj0U4aYFfRHfIrzWwzWuDExc5KPlr95sbqIcnHUlP-R_cmzfz6oaSPWWn7YUdHh84samHM6KYIKS7xw4Bj2KIdj1TrJI7pksbq1tjg07gkZUNj62lrCNOk-rYEN0WCb0g-69WRxICZ8gIqN-MgKZr9X0VeBzx4obGnXWd4iXC3AP1lfCzrnYxae0vX35IgQc3NxX3WexfhczSC44SoDr6xpXNZZ0aZ5LjI0RIOqSR2KVQKPBJk-Qv3oX6Fk9IeLmhM8wvB4xX-T7KhzHaOHNCPf1ffCEl1K0fxcCC6S1VMEuu9ILJpRdtokWtpvhoODKTDjngOzVz0Bikv-Zi1-uZx5JCsRV-wad3R0P03yurOARhwNyjtHLQD68jzOtjOfi1yWDjx5qzLr3_vBlh5QW6IDJV-2p_q6x0VJLHRX2MO_jWENZVLBPG7jhP_7NvZRFxP_VE9ety7u0V-9wJwVojTmHJcpXiz0ld_YoeGy2-YSzUCsKz_kwvfbZOqAtxEOzQkzsOmt79rJvVPluvx9ikPvu9qIzuT3jFlTh4fYReRaLcjkXkIFQTMySkwkEFL6_cCRS3yq3uLz0syb6QFR-0W00?></g></svg>